<mxfile host="65bd71144e">
    <diagram id="6p0LjRWKndxg1VACOGAh" name="Page-1">
        <mxGraphModel dx="1433" dy="1895" grid="1" gridSize="10" guides="1" tooltips="1" connect="1" arrows="1" fold="1" page="1" pageScale="1" pageWidth="827" pageHeight="1169" math="0" shadow="0">
            <root>
                <mxCell id="0"/>
                <mxCell id="1" parent="0"/>
                <mxCell id="2" style="edgeStyle=orthogonalEdgeStyle;rounded=0;orthogonalLoop=1;jettySize=auto;html=1;exitX=0.5;exitY=0;exitDx=0;exitDy=0;entryX=1;entryY=0.5;entryDx=0;entryDy=0;" edge="1" parent="1" source="4" target="34">
                    <mxGeometry relative="1" as="geometry"/>
                </mxCell>
                <mxCell id="3" style="edgeStyle=orthogonalEdgeStyle;rounded=0;orthogonalLoop=1;jettySize=auto;html=1;exitX=0.75;exitY=0;exitDx=0;exitDy=0;entryX=1;entryY=0.5;entryDx=0;entryDy=0;" edge="1" parent="1" source="4" target="33">
                    <mxGeometry relative="1" as="geometry"/>
                </mxCell>
                <mxCell id="4" value="config.Config" style="html=1;" vertex="1" parent="1">
                    <mxGeometry x="-30" y="220" width="110" height="50" as="geometry"/>
                </mxCell>
                <mxCell id="5" style="edgeStyle=orthogonalEdgeStyle;rounded=0;orthogonalLoop=1;jettySize=auto;html=1;exitX=0.5;exitY=0;exitDx=0;exitDy=0;entryX=0.5;entryY=1;entryDx=0;entryDy=0;" edge="1" parent="1" source="6" target="4">
                    <mxGeometry relative="1" as="geometry"/>
                </mxCell>
                <mxCell id="6" value="CLI Options" style="html=1;" vertex="1" parent="1">
                    <mxGeometry x="-110" y="320" width="110" height="50" as="geometry"/>
                </mxCell>
                <mxCell id="7" style="edgeStyle=orthogonalEdgeStyle;rounded=0;orthogonalLoop=1;jettySize=auto;html=1;exitX=0.5;exitY=0;exitDx=0;exitDy=0;entryX=0.5;entryY=1;entryDx=0;entryDy=0;" edge="1" parent="1" source="8" target="4">
                    <mxGeometry relative="1" as="geometry"/>
                </mxCell>
                <mxCell id="8" value="YAML File" style="html=1;" vertex="1" parent="1">
                    <mxGeometry x="50" y="320" width="110" height="50" as="geometry"/>
                </mxCell>
                <mxCell id="9" value="httpProxy" style="html=1;" vertex="1" parent="1">
                    <mxGeometry x="530" y="522" width="110" height="50" as="geometry"/>
                </mxCell>
                <mxCell id="10" value="«interface»&lt;br /&gt;&lt;b&gt;cache.Proxy&lt;br /&gt;&lt;/b&gt;&lt;hr /&gt;Put&lt;br /&gt;Get&lt;br /&gt;Contains" style="html=1;" vertex="1" parent="1">
                    <mxGeometry x="290" y="370" width="470" height="102" as="geometry"/>
                </mxCell>
                <mxCell id="11" value="dolphinProxy" style="html=1;" vertex="1" parent="1">
                    <mxGeometry x="290" y="522" width="110" height="50" as="geometry"/>
                </mxCell>
                <mxCell id="12" value="gcsProxy" style="html=1;" vertex="1" parent="1">
                    <mxGeometry x="650" y="522" width="110" height="50" as="geometry"/>
                </mxCell>
                <mxCell id="13" value="s3Proxy" style="html=1;" vertex="1" parent="1">
                    <mxGeometry x="410" y="522" width="110" height="50" as="geometry"/>
                </mxCell>
                <mxCell id="14" value="" style="endArrow=block;dashed=1;endFill=0;endSize=12;html=1;entryX=0.5;entryY=1;entryDx=0;entryDy=0;exitX=0.5;exitY=0;exitDx=0;exitDy=0;" edge="1" parent="1" source="13" target="10">
                    <mxGeometry width="160" relative="1" as="geometry">
                        <mxPoint x="230" y="502" as="sourcePoint"/>
                        <mxPoint x="390" y="502" as="targetPoint"/>
                    </mxGeometry>
                </mxCell>
                <mxCell id="15" value="" style="endArrow=block;dashed=1;endFill=0;endSize=12;html=1;entryX=0.25;entryY=1;entryDx=0;entryDy=0;exitX=0.5;exitY=0;exitDx=0;exitDy=0;" edge="1" parent="1" source="11" target="10">
                    <mxGeometry width="160" relative="1" as="geometry">
                        <mxPoint x="240" y="512" as="sourcePoint"/>
                        <mxPoint x="400" y="512" as="targetPoint"/>
                    </mxGeometry>
                </mxCell>
                <mxCell id="16" value="" style="endArrow=block;dashed=1;endFill=0;endSize=12;html=1;entryX=0.5;entryY=1;entryDx=0;entryDy=0;exitX=0.5;exitY=0;exitDx=0;exitDy=0;" edge="1" parent="1" source="9" target="10">
                    <mxGeometry width="160" relative="1" as="geometry">
                        <mxPoint x="250" y="522" as="sourcePoint"/>
                        <mxPoint x="410" y="522" as="targetPoint"/>
                    </mxGeometry>
                </mxCell>
                <mxCell id="17" value="" style="endArrow=block;dashed=1;endFill=0;endSize=12;html=1;entryX=0.75;entryY=1;entryDx=0;entryDy=0;exitX=0.5;exitY=0;exitDx=0;exitDy=0;" edge="1" parent="1" source="12" target="10">
                    <mxGeometry width="160" relative="1" as="geometry">
                        <mxPoint x="600" y="492" as="sourcePoint"/>
                        <mxPoint x="760" y="492" as="targetPoint"/>
                    </mxGeometry>
                </mxCell>
                <mxCell id="18" style="edgeStyle=orthogonalEdgeStyle;rounded=0;orthogonalLoop=1;jettySize=auto;html=1;exitX=1;exitY=0.5;exitDx=0;exitDy=0;entryX=0.5;entryY=0;entryDx=0;entryDy=0;" edge="1" parent="1" source="39" target="10">
                    <mxGeometry relative="1" as="geometry"/>
                </mxCell>
                <mxCell id="19" value="server.httpCache" style="html=1;" vertex="1" parent="1">
                    <mxGeometry x="379" y="99" width="110" height="50" as="geometry"/>
                </mxCell>
                <mxCell id="20" value="1" style="endArrow=open;html=1;endSize=12;startArrow=diamondThin;startSize=14;startFill=1;edgeStyle=orthogonalEdgeStyle;align=left;verticalAlign=bottom;exitX=0.5;exitY=0;exitDx=0;exitDy=0;entryX=0.5;entryY=1;entryDx=0;entryDy=0;" edge="1" parent="1" source="37" target="19">
                    <mxGeometry x="-1" y="3" relative="1" as="geometry">
                        <mxPoint x="460" y="192" as="sourcePoint"/>
                        <mxPoint x="536" y="302" as="targetPoint"/>
                    </mxGeometry>
                </mxCell>
                <mxCell id="21" value="handle /metrics" style="html=1;" vertex="1" parent="1">
                    <mxGeometry x="160" y="2" width="110" height="50" as="geometry"/>
                </mxCell>
                <mxCell id="22" value="handle /status" style="html=1;" vertex="1" parent="1">
                    <mxGeometry x="160" y="62" width="110" height="50" as="geometry"/>
                </mxCell>
                <mxCell id="23" style="edgeStyle=orthogonalEdgeStyle;rounded=0;orthogonalLoop=1;jettySize=auto;html=1;exitX=1;exitY=0.5;exitDx=0;exitDy=0;entryX=0;entryY=0.5;entryDx=0;entryDy=0;" edge="1" parent="1" source="24" target="26">
                    <mxGeometry relative="1" as="geometry">
                        <mxPoint x="290" y="169" as="sourcePoint"/>
                    </mxGeometry>
                </mxCell>
                <mxCell id="24" value="handle /" style="html=1;" vertex="1" parent="1">
                    <mxGeometry x="160" y="122" width="110" height="50" as="geometry"/>
                </mxCell>
                <mxCell id="25" value="mux" style="html=1;" vertex="1" parent="1">
                    <mxGeometry x="70" y="2" width="90" height="174" as="geometry"/>
                </mxCell>
                <mxCell id="26" value="«interface»&lt;br /&gt;&lt;b&gt;server.HTTPCache&lt;br /&gt;&lt;/b&gt;" style="html=1;" vertex="1" parent="1">
                    <mxGeometry x="354" y="2" width="160" height="50" as="geometry"/>
                </mxCell>
                <mxCell id="27" value="" style="endArrow=block;dashed=1;endFill=0;endSize=12;html=1;exitX=0.5;exitY=0;exitDx=0;exitDy=0;entryX=0.5;entryY=1;entryDx=0;entryDy=0;" edge="1" parent="1" source="19" target="26">
                    <mxGeometry width="160" relative="1" as="geometry">
                        <mxPoint x="330" y="172" as="sourcePoint"/>
                        <mxPoint x="490" y="172" as="targetPoint"/>
                    </mxGeometry>
                </mxCell>
                <mxCell id="28" style="edgeStyle=orthogonalEdgeStyle;rounded=0;orthogonalLoop=1;jettySize=auto;html=1;exitX=1;exitY=0.5;exitDx=0;exitDy=0;entryX=0;entryY=0.5;entryDx=0;entryDy=0;" edge="1" parent="1" source="32" target="25">
                    <mxGeometry relative="1" as="geometry">
                        <mxPoint x="60" y="89" as="targetPoint"/>
                    </mxGeometry>
                </mxCell>
                <mxCell id="29" value="bazel-remote Server" style="shape=image;imageAspect=0;aspect=fixed;verticalLabelPosition=bottom;verticalAlign=top;image=data:image/png,iVBORw0KGgoAAAANSUhEUgAAAF4AAACACAMAAAC1OC4DAAAC+lBMVEUAAABYcIBIW2k8UF1Vbn9DVWIzQUsvPklSaXmBkJo7Q0o8S1dWcII4QEZAUV4bKDBSbH5SboEjLDNHUlkuNz4oMjohKzMQFBcuNz5DT1gVGx8dJCkiKzEYIyouOD9VaHZKYXEJDA4QFxwKDQ9CUFl+iZM9TVgHCQsUGBxMY3Jyf4hSZXIXHSElMTl3gotOaHpueoRYbXwvPkkoNT5bZGuWoauHkZqMl6CDjZZLX247T12CjpgaIylSboEcJSw8UV8dJy4QFxsgKzJEW2tFXW4yQ08YHyUxQk0fKDA6TlwnMz0ZISdAVmQsOkQKDA1KZHU3SVYpN0EvPkkoNT9Pan05TFoqOUM4S1glMDk2SFQ1RlNCWWg/VGMkLzctPEZIYHFOaHoXHCEbISYjLDMhLTU+U2EXHiNJYnMwQEsjLjYuPUdRbH9NZ3ierLY0RVFLZXdHX3ATGBsRFRkmMjsMEBJDWmpAV2YVGyAOEhU7T10TGR4AAQEiKjEhKS8fJiwdJCktOEEqNT0VGh4vO0QpMjooMDdCWGcxPUYyP0kPFBcrNj87SlYjMDkmLjREVmMZHyMFBwkDBAU1Qk1AUV5DVGE+TloHCgtHWWhIW2o3RlAKDhFGWGVWbH4/T1xMX286SFRBU189TFg3RE84R1I0QUtTaXpKXWwsNDlgeY1RZXYrQU5PY3NIUVlifZFXb4KXpa8lPEgjOUUhN0MeNECEkpxNYnIoPkuToauMm6Vddohdd4s0TFuQnqhmgZZacYNVZnJBS1I1PkSbqbOHlZ95hpB0hI9eb3tcZ29KXWg3T16JmKJneINmcXpOYGxSW2NLVV1ET1YtQ1FccoZhc35YanUySVc/R055iZRbbHdYY2uAjphadIdxfIVSXmhNWWI7U2IvRlNtfYhqe4ZSY240O0EjNT8XIytqhpt8jJZ+iZJ0gYpvgIo8Rk0xOD5xgo1teIErO0eqtb9odX5kdoBhbXZga3Q4QUg+yM9BvsZBk51nfZZLhpFg7PJFfYe24vCbAAAAPHRSTlMAMBMIaL7krCD+/tlaQ82VTUF2OCLnoVxVVCzx1YNrl+zEn5CFeWru5NXNw7666ayqgffx5uDZubGvoZNLVsmWAAAUEElEQVRo3qzYZ0xTURQHcGdU1Djj3jNq4kicsbZQoEgLtaxCkaKFUkvBCt1UKogIolWoAxX3ViQKalwYLe6KCigoThxgHKC4d+K571af9SEt0fOJD/D733PfO+++RyP71aRxm8GTBzdt9P8KyPbNxvQdPXz4yFaXTuw/Pfv169cTGv8r2an7kEF9J40Y1q+09Pz564WPHr48e/P2oTNHj+CAcYMbjrZsBsscBeSMGDdX9fTprmt2Xrny+NSp0nIi4Pm5ZyjgxJH9syHh9MSGttBsSpT/zOg502ZhXuOVkrIaJ6CAN4UPnz8/CwmXUMLp07Nnjx/cQH7KlKiZv/EhIV7L1q2+eNHawps3r6AFlHAGIk4cOXLkzOiWDeKh/OeQfASDEbF55bp1OKH83eXLb17dhR4gotWhQ2egDg1v1iAeGoieRfJxnp5xKzavXAYJ9x7funDh/TtIeHUXZUAIqrMj+7ZsCA8XYFoMyQcEBgas2oAi7t+/hyLev0ddECG4Xr0a0b0hPOz/DFeS5wkEvCVbtqyCiCIUce8WtAEhkGKtd+/HDmpin8e6P7p7YlxTSD5Y7i5fu23Tki2rVuXkFEHGVRSCUnDBj/euNm/rEI9vTtj+6V6/8R5SqcfyrVvXblpiNhcXQwiR8rPu3y8qyslpDS04xs9AvCbkd95XFhoqW7Ro+/blW6urb5hRCsrBVVxsNt+44eTUom0DeFi+De/N9/FJTFywIDU1teDDByenasjBVV3t5PShoKCyZlevjn9poU1dfNwfvB9bqVSy58+fvzgxsaaysgAXwJWVNTW7di1cutTQs0uP+nkYXLw5dfJBwkixODx8qXDhwuTkXdYCGeh4g2FeQli6qH/XpvXzMFjA480B/U+eOdUZ1VRDvLUMAM8DGuykWIVONXRgD3u8F+bx4qk8nU6j0ThQYWGcMHDT00XaJH1sWppKpcrK4nJxC1R+Dubhxmdgnli7rG6exZJIRFpw9bGxCoUiTafTWXluJrRgl+dhHmzvhvKZGRm4BZL3J/gYKo9sn4byUKgFzNsOLYVHNNsxHnwyAbdA5dFDAe5LOckbIyOF9fNpEEB2ADw3yVBpvtWyUXvqVJE8XFfYmCBjJJM5NdyW/6m7QJG+aGml+er7u7dPzCaqc7083JV84GHhAMP9TvA0QtYT5YJLG19zo+jCq2dHTwOJq14eTxXJizGcAypZ2nnJBeb7F948P3SUOIT379//J98JeOrQkrw3ycOuXIWV6lnxuwrMRffKC8+dO3vz5lPi/L10CSdAwGkKTx3aevhieMF6+7bw0aOHL168JAJ+JVBboPI2Q2vL04uAX1L69fP54x+PFX76BAkvbVu49PxUzq2cs9CCLU99JpBTpQyKDCd4A+LXnvr0rfzzt6/XP34sLMQtnDtXWH5/yaLFYppEq2VK9JeJFjDfwd7Qskk+B/jtV75/PlX6Fd7grl8vvbJs1VqZnxjuJlGSS5pOlcXN4ov076xXAfP4IK+HN0bizQkvBj714sV1KzcsWSv19oM9c6ajxyfcqXoF6FxuBlcuSboA1xlfhbbAU4fW9pmAeYCWmoH35vn5wTOCzfZLTFwMlyU8fiqdli4CXsXNzDBlMCTaW2d+3kjA2xtakl+IeB8vwerV61au2LBl09bl21MTFycvNcwLkyQpdJiPk2jv4esMLTjC46EFPvkG8Gw3t5PXTq7fsXfj6pWrNi1PTUwWxv/iTXMzPSXaq7dbtYJ3UQiomw9APHVo5zsBb5wW9eXL7mvr9/zGJ4gUKlWanib28xUESERFv2ahO/DUg5w6VZj/ALx4hv/un/ymBZEJLE4Ck+0rYMB7NX4/Yoly8LRBC8A7PrQ1iGe6+R+7tnFLarJQqAwNZqjV01PQN0EEwonXI5akGE8btPA3XlAnXwC8s3qm1D1OPQs16+bqCroX/A1eOtKDWRIzGmfigdG9UWO7Q/uLr6wE/okGLhPayRiMa7COlw66nMOq/jXO3ermedRnAvAFBF8Bv0ouXWOzdNQ0h+X085n3EvN2hvYXX4N4CywE6YBP/3PpoEtprEXn4YnxFrUAvJ2DnJwq2oddiM+3XXqEzdLhr2ic1NLycvzYHmLD204VlU8m+D+WzkBLD+TJQ5XxYUkiqYzGWQCflKUo4DrwjhzkmHdaSPC2S/cMDk2OD4tVcYnS+YbSaIuvPIZPStRCn7r4gLoOcuCrlwJPz7cuPUIgUxrSFVxrpYnCDEK2n8wbxu/iRfxhX0rhQ/52kJN8iiA0aJ5IZ2VVSWFTg3xC+UGG9FgdNzaUT6cpia9u1ALwDh/ktBvhBO9hXW76PKGP1F3Ghi23bo1C6+ztQ6cFwfcqTgDe0aEF3oB4S3BCZKKUF+ixODzB6qpi0+nhSj66VmyhM10Yx9i8mQggeerQYl5J8mbMR3gLCRfvjCGIL3V3l6NbIZTvp4yEAywyMND6Vd+xUUtHD3Lg5wFPq+CBq0tKCJ/vKw+MY4R4QTHiAgXuHjJYvFE81dkoF/ACAzyhBeAdPciBTyD4OG/3gAiN2m1WdBT6X8osN7UmghHAk3vI+D5VVXm5h7OzSx4EC1ALwOOD3O7QAl9MQ7xmVrT/FGsRfIyrl2fZg+zcvAMHoQ7kQcBhCEAtIJ56kNc5tMCHIV4dhWX8fxo3jaWsJDv7cJXYmJuXd+AACjiQl2ttoTfwdg9y5k+eBTzHLQq50dNi1BqLJf9BbV4Vqtxs4+HDudCBTQv18+TQYl6C+BloO9SaQPfsbF/f2pL8/LJaI12bXWKEHiDApgUKX8/QcnJEwLOmoV/g8ULUmopgvpiVljkXVcmDqhK0SbYt9G7UxKGDnE7wWsRHB0yLYXiw6S7gEmVSaZ2VZWVVZQ8eQIBNC8A7epADrwde4u8ZzbfCmS50pW9+RX6t8Ul2Pr+sDAJwCzhB/GQAhbcdWiovimL4e5t0HKPU01Uj4DMlKhNKqrXUWuAylOEWco1PXLimDBXwDg8t5rX7IqbMnBXhoaSlgYuKq3dm+3r4+jAsKKAWLkdGRlYW2jpOO8Q7OLScIhco/R2vfSnYJXpwlwfDAye4QhNSxmdquaYsLfOASxZOfgK8vbdvGx7qWMqd6ZlapkzA8/SEQ1YD5/r0YD+6wpThQq8qsaAWFARvMgHf1MG3b+CdshB/PGUaenMKUc+MivKP1rgbJdy5XIlQyoDTQhNSUWG0WFxUGSZUzsDbG1qS/8GY3fw0DQZwHNeo0ZPx5FWvnvwHJs6pYzBRwRemMnUUp4BRAbU49tIx5sqKj9oX29qXtSutbZr21sOWdHevu3LwyMnEP8HnqW8xJtjvnQ/bSvN76L6urcFfYF/x+/3+zs5jZiGz/P79ZnLixrMr0enhy9SL5NTnrS9ffvEZyMccctjX6ELaXj+g6ukPa+8KK7fPLy7Cn3/4ePrGvXOXxr5tfXmSnXg5c+75h3eoFORjnb4RX/u0hsJX19aeJ6dYM3oL/pkni6+TDx/cvnZh/O7tu6mLM3N37pR+8nOQj3n6TmRHmhFfpQI7DD1vx+aZfu7149Grr+4Xb70aK51/8G3yzvTI6IXzpdXLH1BzxyEfc8iz1TfvUequt+t1Qr/sywEhj41y98Yy12em7z6cfDR2d+vqi9SFZ5CP2jq+b1+8If/DC7tZzwO07FUB4HOWv8AAv/Bq5kbxyuuF0fNjhckrD/HVjxG/AvlYp2/EVyoRD3ZDYUGTfcyW3Uc7zBM+UFL+peknATF1a2L+xp2Jp09x+B8u6tphyMc5fSO+XH2HYsK03eeoYVhTVZBze4RkycVpZQy/8uwq8XQmefv+/cLm86hJyO895Fv/8Fzo8Q3elMue7FI7Gs0FSt53Aek/ujozPX728c3F68XN1Yi/CflYp2/EY7UPKMp72xuK1KCXBQAQTl8Hgp3QBKsgB51R83VqzD8D+aiJv/k9Tt+In414wxuAuqia5eHQbNg8xQ/4vOcCcYekBGPy0uKkP0hv/mgB8nFv2uyb2cso2i4OZIY07arEq23H7vJBWBNcq9ZzOpQvzHO9newytOETvCnIx3iM9pN/G/Fkf8C2KcesDOWg1QeGIPPN0OWVPq0LRpuXW/0+PA8tox5BPu6QQ/4jaqFXkOUO6fRqEg9ybp8UXG9WUIWELStUL8jznj1y7twSahTycW/abLPwHDUx9JW6rrrVoWPRA4YGrpa3XV73ROBwpLrT8LyRc0sl1EXIxxxyxK+i2gPcNLdpxy9qrJ5TB6RkwVcfCDVb1oHt1N0wTC6V1lHiob/5s3sMefonX/dNbkMEVlV2hdaAo3mXwWwLKMNtzTRox26Hu5lSCUfdgnzMIUf8JmpFXndcuhXIRZbl3lh+W7J6s1bAVmzTkAZOxdjdTZXwAqoD+bhDnt4oLKNyskNtUECoyQIgfYoULB3rAU0zSZEh24KsRHwRRUE+1mM0xDfxiJ83S4FKkKqJs6xY5uUcb5lpiqPgFWHJnpPTwl2sVEijdMjHHfL0J3wJNe+4nSalgJopMbQqNroskXcCttWjKQkQQq8bhth6MYviIB9zyNGHU0JhTkkVxrctYb1Lk00t6HYUeZYCAi67Oj1Q82wYzuPpBIqBfKzHaNGrL6yjUi4QixsGU5MsCVM7pKhyZVlQWj7ZkXSCH5Ke94tXIB9zyBGPozJBSWK7OVbNiqJSZoJGhzOLOgC4qRpiIBQw28vj2REU4mMOOeKjMipPlwlNmxUkpgk/+w5PZUxW3xYaREtss6pg2/lCNolC/OlYNy3ii1EZawmARo6xCqLYqShqvWOwOEHqBWDxVVNYaff6W8VEJpNKpRC/7+DTGEOO+HRUkpfICqErb3kG/v03NspMa4NRmbJj0KRV1xy211spjsxhMOXoPtj+kzGGPP2bl5Y1rb3BdUrtNlnvMDrRkrCGAd+TwJYdCSMGw5V0Mo+CPOrAqf8OOeKzUUnQbSylu1SZljScoluYwOU1XsfcbXJbanIuNRiMZzO5XG5lBfFRJ/435IhPRCXZWcowZg0da7fZpsiIRAtUia60BCQdU9lKXfbHs6lx2LWIjzp2fq/HaH/xWrdVqTFUjdY4nCKJJuhUWGBgVqPR4vKUSsnytcTcJIqJ+KgjJ/cccsSPRCUV3DC2E12qVq/rZVppES0mXSeZJYWlqvASt025ncjfhN81TkD+T4f2HPL091rt9jeGIA7g+IWkXggSWk8tLxDxgje8E0FUW0SvrVbVw6mZ0aUlmLXckp2ZnZ1duzdnbXJ1OFLn9pZEvPb/md0NUqdVT58/4DuXzf2y2clPc49nTtUbNqXV9mBcb0YNwa2FmNTfNYj69aKOmh/i9+/Hjj69mkrz3+2dWeoaLc+fyrVwoyFYEkPXja2g6nN7HvKkXpmfj61XdWp//DimvkdTWf67TTNLv8hV/kSumUgI4xr0q+1ybLthvUZbrcR6w+2gbTVeik8f7eNnhlIza3/YAFq79NBq3mzmehsngR35cTTlNqjflNyuAx40K/WWjxaaOnz7afj4+EDqncovdvji0vmpTCn2XQiTAPhxUo5lKWz6sNX2UXVqthSgWr369vPwqclLqecd+cK20exF3jG0Kn8mM1Wr+L4biVq55PlQNDy3FGCL13DSbJfnm4R+eCtODI+mrnTmC91dPx/aQW88cybxSxrzBfYTocnQ0hJO/GoA6zb3WiRYqL36IE5cPZ86q/IdVq/veJHn+TFlcnIsMIRAUEpMqSRSCCtMIOLNStKoafWYWW9eietzp5VHWb7TnpuLpuprfjgz6XvI1KUNvcQ3uRvCWDA/tqOq63k16tfFmzdz188dSz3L8p3WHewc2kH3qqIWCwR2XY5dHhHqU1dwggJNPXszqAktELrx/Nnc7M2ZK8qTPN9pVdeia7Q8fy5nhwhgIcuhb5sytGAgIz+QgIcU+sgW1efP50oDZ5WHT7oKS1nz49AOukM5WfG8EHu8TKkNPTskED2GltQ8EZtBgPT5d3NP71xOvVT5pewcXzS0Kj+Q4yF1MHdxKN0KY9S0XYsENrbtEmwTKeKFhZtTl/ozKr+k7YcWTdUgv5RzjTAkmDAcRSVkWQLCkDArcUI7MHxBcKsezF46mVL5ZazuW5Qfv5gZ9SJoFJEHAedFhkJTSEoEx7aLYI25wq+2klPjD6aVkyq/nA3Xvw/t4NiFnOdQFlYoY+oASiwOIYKQCj2UtmnLI5VmdWBqcqh/ZGRE5Ze3dfZ73j6dCyMGiiECwPOKjJKK9CCRnu6GNBLM46Ldbg8PjR67d/v2PZVfXnfPt/zwo2OZUGeQmAwCUPYgJaGmEaAxqVuuNCSHeq1RVfXL09cmplX+Vw58zc8dyyEAcdEiGCBUhIwZanAZRxUXUWDDkMta7fyFmf4b6pr8Rk/h1zYezfPnruSQCSNmwMhxMIogs8qAAsC4STzX4G6Eg+TRlf4RVb81ovK/tq43zUdDD3PIAXqRMowJeRFBaJYswDxS8SjUOLBczw/m79240b/QbrRVfgVW9Q1qWjRwOYdMAODrCGCsEyeC1ClT7MCSQREyZAjS/bVsTy7oObC1sDKb1cO5059D2DGLEFYwYy9ABEyLYoaY6ULCQynTBTnh2z2bVXrltkBt9GQOvXYcUCw7FV1nGECIHVSxQpTuq3HOpeR9m9cVfld37/npHNJ1oxgBA8PoBQUOocSyEAqzhTivb8P2wh9Z3TWSQ0WMcRFHRgQjxhillBB1gtXbt6O78BcOTN9NIWwajgNAFEVQyU7o3a92Dv/WxgfXlFldx9hJD8hP6N2vVrj+ie5HExMTU7qC8xP27d9S+Je6Jm7d1zN43651hX9uzV2u686+XdsL/8fWnt0r/4N8AVeCuhhUl2DZAAAAAElFTkSuQmCC" vertex="1" parent="1">
                    <mxGeometry x="-260" y="24" width="80" height="80" as="geometry"/>
                </mxCell>
                <mxCell id="30" value="http.Server" style="swimlane;fontStyle=0;childLayout=stackLayout;horizontal=1;startSize=26;fillColor=none;horizontalStack=0;resizeParent=1;resizeParentMax=0;resizeLast=0;collapsible=1;marginBottom=0;" vertex="1" parent="1">
                    <mxGeometry x="-160" y="24" width="160" height="156" as="geometry"/>
                </mxCell>
                <mxCell id="31" value="- Addr: string" style="text;strokeColor=none;fillColor=none;align=left;verticalAlign=top;spacingLeft=4;spacingRight=4;overflow=hidden;rotatable=0;points=[[0,0.5],[1,0.5]];portConstraint=eastwest;" vertex="1" parent="30">
                    <mxGeometry y="26" width="160" height="26" as="geometry"/>
                </mxCell>
                <mxCell id="32" value="- Handler: http.ServeMux" style="text;strokeColor=none;fillColor=none;align=left;verticalAlign=top;spacingLeft=4;spacingRight=4;overflow=hidden;rotatable=0;points=[[0,0.5],[1,0.5]];portConstraint=eastwest;" vertex="1" parent="30">
                    <mxGeometry y="52" width="160" height="26" as="geometry"/>
                </mxCell>
                <mxCell id="33" value="- ReadTimeout" style="text;strokeColor=none;fillColor=none;align=left;verticalAlign=top;spacingLeft=4;spacingRight=4;overflow=hidden;rotatable=0;points=[[0,0.5],[1,0.5]];portConstraint=eastwest;" vertex="1" parent="30">
                    <mxGeometry y="78" width="160" height="26" as="geometry"/>
                </mxCell>
                <mxCell id="34" value="- TLSConfig: tls.Config" style="text;strokeColor=none;fillColor=none;align=left;verticalAlign=top;spacingLeft=4;spacingRight=4;overflow=hidden;rotatable=0;points=[[0,0.5],[1,0.5]];portConstraint=eastwest;" vertex="1" parent="30">
                    <mxGeometry y="104" width="160" height="26" as="geometry"/>
                </mxCell>
                <mxCell id="35" value="- WriteTimeout" style="text;strokeColor=none;fillColor=none;align=left;verticalAlign=top;spacingLeft=4;spacingRight=4;overflow=hidden;rotatable=0;points=[[0,0.5],[1,0.5]];portConstraint=eastwest;" vertex="1" parent="30">
                    <mxGeometry y="130" width="160" height="26" as="geometry"/>
                </mxCell>
                <mxCell id="36" value="Client1 (Bazel command end users)" style="shape=image;imageAspect=0;aspect=fixed;verticalLabelPosition=bottom;verticalAlign=top;image=data:image/png,iVBORw0KGgoAAAANSUhEUgAAAHoAAABpCAMAAADCxcfjAAADAFBMVEUAAAC2usXIy9PJzNPNz9arsb3P0tnU1tvZ2+Css76ssb7JzdTY2t7Z29/O0Nfc3eGkqrikqrinrbrT1dq/xM22u8bCxs/Y2t/Z2t7c3eK2usXO0tijqrbd3uKiqLa+wsywtcGiqbXc3uLc3eCxtsK/w822u8Wnrbu+wsvW2N6yt8OcorLh5Ofj5eje4eXl5unl5+vn6Ovo6uzt7u/g4ubY2+DZ3ODq6+3d4OTc3+Pa3uPn6evZ3eLh4+br7O7y8vPW2t/U2N3j5OjR1doVW6/b3eHv8PHFydASYb3Cxs3U19vLz9UTXrfP0tgUXbPS19z09fWcyO/IzdPN0dbV2d+ayu2jyvLT2d8RZcaszvTW2d0RYsGx0vcJcuYSX7q7wMnGy9GnzPOfyfG9w8vEzdS3vsfIz9a9xs6DxebCytK61/m11Phto9rK0tiTxexYr+o9m+aWxeV5s/e/yNEvecehqbSgyfeXxu5PsO6Wyex7v+Z0u+bM09oSacmlrbm/2vlXnvB4tO2czuyQw+yZwugYgOeFteJ+r+AXedcTcNITbc4QacySwfJgsehotOcPeOaRvuWmzfmZxfhyr/dJsvKKwO2MuOs6r/Zqq/Zkp/WJvPIqofKAt/CBu+x0qN3P1dwVdNQuesqt0PiSwfh/t/iCsulut+dVpufW3OHE3vuLvfheovNRmvCMuOaQyt8dhN+psLzL4fuZxvMnm+9TrOonluozj+aLu+IZfduTve1HnOR5rN6FuvhBtvhvrPBjp+xGoulmsOZgreZPoOZaquU4l+QtjeOzusRHt/Y6pvBKl+9Dku2LyuhlndivtsBEqu9pq+00m+yh0epLqOogjeh4q+c2gc4xeMIwqPWawe8+oOu0y+TS5fyfxO9xsOw9lOVUndhOktI+idHM2OdwpuU0k+B0tNxKmtu20fDc4+xbotgrhujD0eKCwN5prNpip9nb6v3P3O2Szuqivd1FkdYpardhouKbvOGsxeCMrtZ9o89RiMYca8RwtOYncsVjksmmw2HyAAAALHRSTlMACpsUSiDRVvP+TeGibSrIaDrAO9DLhbeI9u/q4NSkc2/07OLeuKiQ9OqYgGmFvPUAABBtSURBVGjevNhnbE1xGMdxpVSovYkRe9xxzrm999yWa9euva4ZEklTwiWiocRu7RkNYu9VDanWilHqhZFQK1TpdFt7U/v3/P/Hce/lBX+N74v79pPnOc+5L06Rf6l4qRZ1KlZuVOR/5lcBaMMxnTvYjWazuVSR/1KxCuWbVATazxoUZDAYjKClooXP+G63XpOKNUd27d4uJNhuN5l+0iUK1fFFm1cB2reD1WZr1SrEg87OG2aWShY+SWjdxlWadu3cN6xdu/7921o96ew859hDL168yJfMfoWL+tctWrlp5779erW19m+HPOnstIGjIvYeOnTv3r0XL/IkKaCwDqkS0M7dw7q1DQkOadXKZvWis9PS051jIyJmztyr2U6pMO6sbEDVRqXDulmDHQZDkMlk96Y3f3g/L33gKKdz2LCxY7lN+DDp3+7Mr1KZoiVK2oINUktZMpuNPvT0D+/jYo/duZOePlCzI3R7piR+Z8X8q9cObi+rFktrVVV86UFp75Pi5s2LjY09ptuguc2W/lL0zvxrq53atGnTqZPlFzok7XV0THRcXNyKefPiyGY4aN1mg+dJstidlWvTu/dv6CevC06cOBETExMdHc3onT9sRnvaTkkWu7MGvX3pJ68/frp1Zdy4TZu4rdGaTVPrNlv6NkkuITa1J70H6tvbaHLWON3WaAT7Dp61hw18b4Qki91ZoLbw/A9Qe/bs2aNHF6InZ3IbOKNX3OR0+mjd1gd/KYvdWRmV6I9vO1JEwyZ68hVmb9JpZvfpQ7Q+N4KdJ8v+InRZB9EFcHV6RBeiszQ7JjqJ07DvEK3Z27YBZ/YoWfDO6hP9xIvmdia3OR2XA/tYJGhtbNjASY9YKQveWaAFdKe33vRn0FuvkM3oiaBzbsZGchq2hiPYw0TvrIxMZ/bNm+7yFfYt2Bo9MTonZ+d4TnMbrdTwsaJ3VtZOdIEP3YXGzoSt0THvcuYyWrOJXzlqJQLulBV/sT+VNuilL/0Z9NYMRkOeePNdLGjIoGHzADN8iqyI3VmgChoP24vGykHjT+1ETFIS6Jydc8frNGuKFmzQYncW0J7ob770UNBbM8edwL6JJploH53jRkXszoqHEv36F/or6FsanbSC6AEDBgBmHWatQmTPVCQ/Ibu2BXT+L/Rn0FmZ2tSQp5IMW5eJ5vgoRfDOAmXQnW570pCHDsXQWZnPo/GoU0FDpsiOjDwceXgJtX37drJXKYJ3FmAi+qNG6zLGBv3o4QrQkEHzIhFUTea4InhnxWxEp/nKRL/JePQsaWJq6k95KuDx4xm8fsk+xOx83JlQ5VqDVjmMmDx48OAZGDrj+bOHE1OnQp4zZw6jAc+dC5e37yThq/IUsxhd3Qza8omesw5TtO/nD58exNBzKF1es4bDJxGzp4jemX8w0QUM9pBnsH0/PHgw/BVcBHkqwUzeQO3YsYPbonfmV8MC+okuc3jGYtA09MFp4XNSU4nW5Y1gqUmTuL1P7M5QuZagLW9p2UiDFy/GvtnQ4eGXU8n+IW9k8uxJFOGwhe+suoPoT/p9AaYw9DMMDfnyKy5zeCNc1upTq0HT4MJ3VimU6ALI+sRoIe2bya9eXb48lWTAiMGnWKth09yHFdVfzK6vgs72lBctWrTF/QhDazR+53KZ3Pv3yV23bu1azd6nqEXF6EAzaMtXvmy4aOHCBe5HGHoa7RvytKiNXObw1atXT+/nNlu6ogreWYCd6G8Ec5fKynj+9GA46HCSp0V9+aLB98k9vR/9tF+qgndWzGpB7yHr8JYF7oyHkEEDhrzrbHLyFx0+PQsxmy/dqeLOBF8v0PkcJhddcD96Gh4VBZXgqF3Lziaf332eu5APHPCyl6iqv+jrBbr1LcBwqQUL3rifPY0C7SmfO358N9zdsw5cvOht71DVoqKvF9FXIBNLxbszsOQoCrAmnzvuevDg3KxZBy5d8rUF7ww1aw36A1wOH43PdZ+PWrZr1y5yucyGfpCYeCHxEiIbONnAJzkVtb4gHWgGLS0ADBflpriTzy6DTe4yNjOTHyReeDx/+PxEL3v9S0VR1RqCdIAdtJoFl4q/kHv8ePJZ2AjwUk12cRktfwybLX3dnXxZAR1UolmtqsXEXi/QmyADhpyb60peuhQ2wVzGg6Z1Q+Y9prlP4ZOdDNrat5WCTxKO0lX9/tqu1hJ0GrmQU1Jyb5wHrXX+h/yAyzq+M9tsBi2FdTeogNl3mOC/1ss4QKvxVG5KyoUbrgkTNHjChATIZ864XCmQly/X4TgT+zLs6B7WUlUUWbIpDrtsNDiC2pau+zd62VCi3fHxN1JSXEdu3EiYoLc7Yff1nzJs6MvPpfGP0qH9+vWCLLVvawuydTMqVoPU3m4P7lW53p/rDVTQMVi2C/KRawk/7ISEhOuQ7+oy4Pk52fx7eK+w0CH9TC3NplCjYuogq60tjm5Gm1EKCrHZwv5YDzSDzs51QUZnQDNYl0FDphJX8O/h33s3kxC3rTCO073Tfd/3fZGeFluStVqehywkIVSkAYEuEsiy8cFQGAo9mJy6HHsJ5JCDrz4OhLZQCHRlmktCaAulOfTQU2lvhbaXQv+yNE2TjJM0neQ/NvbF/s3/6fu+9z19M4RSxw85neupuhBnnEgyifqoi6ztiCyRtrbiB++5HPotBGixIR879nYrgBvyaZChD9794kxzK94JM4f6os5mqpb5lPFNS6WKqFiBr6A0yozCqritW4B+6eawRv/+Zg0+dgLURg35h9Onv63Jv3yXNrfis1B2qGPxTJSZJk1MxHlCeT2TnVDodIacbXVEWbT43pZtFw/edqn0EoD+eEU+eurw4RZ96tSpH/bIP/7RTgGw0jI1Fa5rE8Z0BwzLwLeW6ZYqKxZjOpnSgTIN7y1GkmTJffHei6cX0D+DfPTo94f3dApakb/99vdfmymAHPpO5gsiq4aqHyaJSk1dDpHTYpIQU+hshnwN7sk9BdU5EdtPPf7STRdJL6D1r0A+euTw4a+/btEnTpwA+aP302YAsRVKjm8rOqP6jinH1OyanJ8wzECSqSDqihrqlklYRx4Oh5bqF6wGcDMwcW5/bV2hfVIE+veV6a8bteRjn/zWDiAi6ji+aglESwwSB5Ha830/oY7OI6c5k5UHJqdYlq8JPfjnYkFtJzUgkzo215S6R1ig36nRx4/X4OPHjxwB+YfPfm1mH1vUd0CwOJWOE98vaCIzrO8zhPBuIDO6yFJB10U9CR2WEYdKLpEGDMvNfMpELVBvfnqfsxcBmj129PsjR45DIAP96ccpwEAPaOZImWgxjhMtezFVDUMlXqAtQ0fy+S7DZ0mX723qPcnClSbZIGGkcy13Ad6sa6968y3np9etQAtvAt2wAf7yTDtsiqjsZE5HweVdzNzQTe0xlWnhmyqTxZpqsKa/xeq8IgWmwCuIbol1WvBZyy0Ziag/ftv5uxfQnx0FGwL4r5/aiQ9W2snIUOhliW/IQRE7S80J5svlMg4LmyWEDW14Mmlg6nXX4AW8us5yTeYL98Hz0wvoM0DX+uYdrZn4YKUB5juckxWLNPTiKE3tIJiPfZORY9vQFvIgsgnHd0PVyEzLIi5L7PPAJsB7lkXZc92XzusXHKD5D5Fdpz//tR022b6MlbM6m3LoomS701FsaE5sp2lKPC+QTY2RbXw/EyY2w3J8L3Y1AqCqrbMsBq7rvnLX+e14jf7k2JvvkWbYBIjkSOrQ6krhdJYG7mC+WBiuO1+4DgoY3C/9MDAMlmfpAgCwA4PRyEq9fS0LxIUevCDF7mSB/vNMO+fqdS3cLBf6opoFEyol5XTm+b3Ms9NFStxyHjikK8cEvyDjBSoYjE4DVgOL4Gf1OMcyD7JCsdjeM/sUNPKvORe3GosMOTkLtseD2Itms/myqGbzUSCFQRpFqVEg0iPCZrGB1CWs5LGq2jW7XTxXMk3zXMuc53nuY/tW1Of30CZmIiAPTdv3yjgK8tG4DFVahvZ8oSXebDxQieQ6y9RW7Ym9xHUlPa9HHNCArZ+Aggou949lcSsvS++lNQcgoUZvcsMVGIXB97bHUVlE4/FM8qrxbFYMwiKazxd2UM6jsU96QWTXaDMedA3CMOC1dLwBmVM6ltBYFt08L6t1G+j9JtB6vwGjBSmDghb5aJqHdlAF9nhmhOW4CB3Ndm0s+VIrZ2kdbEwYM4Zqbm5ugtg8Gsu6ZXUgBWA1r6r8hfWd+qOCAHBNNv0gh2PXW0xH80FZjUbTMgy82n9a5NP5OFJJMl5EyPKe7zGaYbIsCzQDaCtYthp0X7CC3d2qevliHRrPrcD9fuIXKc3z0aiioVfR+WgsxeVoghoy8IIUS26UdawvoqXsaarUZSGgGXYTTNjHE5Yb9BvKZnVyd/exi/YL98umPqzJw06R5N5oOpoFZT6dbns0dsej0Sj18u3ZtLAJnczm08RYqq5PJBWB1KDxXJHZTV5RGnS/r9CT0H2XaNJufE7XFZBxT8lxgzKIq2p7ezpK3XKSx4OUlnQ2ns0NbzIeI9kWhRcTWbJNDgK6pePB6UqD7rzREcqdjY2Ney7dmepQp9+BrCQo3DnIaVxN8DIuKyx5uNSSHAs/m82WQdE10EJIGQPyP2iIF8UGPewrzsbOzs4TN13OEYgFWxx2LHSoZgGbabFbTibbo4Gbj6CFV23jpaRqVPY0gOs9yrZN9qw4QWzR/Y7lHjp0aOepyzx1Pgm2YHWU+uw4iAOPbk8m08itplNc+oGX0/l0NELsZ2oNbnfHbED2yOhVGnSnL3ZPvvXWoWdvu/yzH7Na9dXZkQko9kmAt+slT+vXSTGIolzqSSD/a1vOaI+DYw7kBo2VS96Cnrjuvxy378bHEaI8vouR4ix3pxOQU9ebTfBm5OZhAz63IYhCbNtCi7b6Il/V5Nf/66zT1CGLQ6p0uxSZFY2iuL7mdLodFYVqbNXkCxoCPyEtGiVMOgTws20y/2fjomDW+6eR2J6X5xOoCoJcdewGvE8P5CddfFDpiIpXW77vyu6vdMHmxG7dcmhRKK3CbUQBlhrLa3qgiKK2KYgvCMl8Rbrubmx1rMChSZNlKRkERRp5McAXWO6e2xAIeiepF7tN5iszThBojKCiO7S3okTOXYDXWWYbMsCILyTzW20yX6nxhxHiJseAjG48Gdj2JSwLIFvSDsiIr/+pWx5lEeO8vPenX2stc3uWFe8Q1G4W/9O4aZLeJmnILXi9ZcRXTUZ8HYRuvLWL/pSXL8dyJ9nBaiO+DkoP1wnGsGct73eQQhOkCNUO0G18HZRxsA1eXXeQai1LGyAjvg5Wd9TZ3eUB3t+yjqo93QAa8XXQuv9VTZZkgVln2WJ2TwLdxtdBG7eR3kQEeB/LncXuyZMbiK+ro/sft+10S+cutKyIk12g0exeNV2POxuRqpgA/9vyUKuq3d0NxNdV1F2PDyIaCWILbuNrXAGN+LrKup5GlBoWd/Yqs5M8r3YRX1ddd91OaTjnrT3yoCzz/AXE17XQ9SENZ3ZHBNhSismkzF87cMZ642GYJOywb6lTz5vgMHUN9VAwC4JxXKA3915EfF1L3XR7AnRcuCXi61rroXgM2w/gsH7tdcP1tz9wxf968Tf5h0JRUcfSEwAAAABJRU5ErkJggg==" vertex="1" parent="1">
                    <mxGeometry x="-360" y="-250" width="80" height="80" as="geometry"/>
                </mxCell>
                <mxCell id="37" value="disk.Cache" style="swimlane;fontStyle=0;childLayout=stackLayout;horizontal=1;startSize=26;fillColor=none;horizontalStack=0;resizeParent=1;resizeParentMax=0;resizeLast=0;collapsible=1;marginBottom=0;" vertex="1" parent="1">
                    <mxGeometry x="364" y="202" width="140" height="130" as="geometry"/>
                </mxCell>
                <mxCell id="38" value="- dir: string" style="text;strokeColor=none;fillColor=none;align=left;verticalAlign=top;spacingLeft=4;spacingRight=4;overflow=hidden;rotatable=0;points=[[0,0.5],[1,0.5]];portConstraint=eastwest;" vertex="1" parent="37">
                    <mxGeometry y="26" width="140" height="26" as="geometry"/>
                </mxCell>
                <mxCell id="39" value="- proxy: cache.Proxy" style="text;strokeColor=none;fillColor=none;align=left;verticalAlign=top;spacingLeft=4;spacingRight=4;overflow=hidden;rotatable=0;points=[[0,0.5],[1,0.5]];portConstraint=eastwest;" vertex="1" parent="37">
                    <mxGeometry y="52" width="140" height="26" as="geometry"/>
                </mxCell>
                <mxCell id="40" value="- mu: sync.Mutex" style="text;strokeColor=none;fillColor=none;align=left;verticalAlign=top;spacingLeft=4;spacingRight=4;overflow=hidden;rotatable=0;points=[[0,0.5],[1,0.5]];portConstraint=eastwest;" vertex="1" parent="37">
                    <mxGeometry y="78" width="140" height="26" as="geometry"/>
                </mxCell>
                <mxCell id="41" value="- lru: SizedLRU" style="text;strokeColor=none;fillColor=none;align=left;verticalAlign=top;spacingLeft=4;spacingRight=4;overflow=hidden;rotatable=0;points=[[0,0.5],[1,0.5]];portConstraint=eastwest;" vertex="1" parent="37">
                    <mxGeometry y="104" width="140" height="26" as="geometry"/>
                </mxCell>
                <mxCell id="42" value="`dir` is a must&lt;br /&gt;`proxy` is optional" style="text;html=1;strokeColor=none;fillColor=none;align=center;verticalAlign=middle;whiteSpace=wrap;rounded=0;" vertex="1" parent="1">
                    <mxGeometry x="244" y="227" width="120" height="43" as="geometry"/>
                </mxCell>
                <mxCell id="43" value="Client2 (CI/CD server)" style="shape=image;imageAspect=0;aspect=fixed;verticalLabelPosition=bottom;verticalAlign=top;image=data:image/png,iVBORw0KGgoAAAANSUhEUgAAAF4AAACACAMAAAC1OC4DAAAC+lBMVEUAAABYcIBIW2k8UF1Vbn9DVWIzQUsvPklSaXmBkJo7Q0o8S1dWcII4QEZAUV4bKDBSbH5SboEjLDNHUlkuNz4oMjohKzMQFBcuNz5DT1gVGx8dJCkiKzEYIyouOD9VaHZKYXEJDA4QFxwKDQ9CUFl+iZM9TVgHCQsUGBxMY3Jyf4hSZXIXHSElMTl3gotOaHpueoRYbXwvPkkoNT5bZGuWoauHkZqMl6CDjZZLX247T12CjpgaIylSboEcJSw8UV8dJy4QFxsgKzJEW2tFXW4yQ08YHyUxQk0fKDA6TlwnMz0ZISdAVmQsOkQKDA1KZHU3SVYpN0EvPkkoNT9Pan05TFoqOUM4S1glMDk2SFQ1RlNCWWg/VGMkLzctPEZIYHFOaHoXHCEbISYjLDMhLTU+U2EXHiNJYnMwQEsjLjYuPUdRbH9NZ3ierLY0RVFLZXdHX3ATGBsRFRkmMjsMEBJDWmpAV2YVGyAOEhU7T10TGR4AAQEiKjEhKS8fJiwdJCktOEEqNT0VGh4vO0QpMjooMDdCWGcxPUYyP0kPFBcrNj87SlYjMDkmLjREVmMZHyMFBwkDBAU1Qk1AUV5DVGE+TloHCgtHWWhIW2o3RlAKDhFGWGVWbH4/T1xMX286SFRBU189TFg3RE84R1I0QUtTaXpKXWwsNDlgeY1RZXYrQU5PY3NIUVlifZFXb4KXpa8lPEgjOUUhN0MeNECEkpxNYnIoPkuToauMm6Vddohdd4s0TFuQnqhmgZZacYNVZnJBS1I1PkSbqbOHlZ95hpB0hI9eb3tcZ29KXWg3T16JmKJneINmcXpOYGxSW2NLVV1ET1YtQ1FccoZhc35YanUySVc/R055iZRbbHdYY2uAjphadIdxfIVSXmhNWWI7U2IvRlNtfYhqe4ZSY240O0EjNT8XIytqhpt8jJZ+iZJ0gYpvgIo8Rk0xOD5xgo1teIErO0eqtb9odX5kdoBhbXZga3Q4QUg+yM9BvsZBk51nfZZLhpFg7PJFfYe24vCbAAAAPHRSTlMAMBMIaL7krCD+/tlaQ82VTUF2OCLnoVxVVCzx1YNrl+zEn5CFeWru5NXNw7666ayqgffx5uDZubGvoZNLVsmWAAAUEElEQVRo3qzYZ0xTURQHcGdU1Djj3jNq4kicsbZQoEgLtaxCkaKFUkvBCt1UKogIolWoAxX3ViQKalwYLe6KCigoThxgHKC4d+K571af9SEt0fOJD/D733PfO+++RyP71aRxm8GTBzdt9P8KyPbNxvQdPXz4yFaXTuw/Pfv169cTGv8r2an7kEF9J40Y1q+09Pz564WPHr48e/P2oTNHj+CAcYMbjrZsBsscBeSMGDdX9fTprmt2Xrny+NSp0nIi4Pm5ZyjgxJH9syHh9MSGttBsSpT/zOg502ZhXuOVkrIaJ6CAN4UPnz8/CwmXUMLp07Nnjx/cQH7KlKiZv/EhIV7L1q2+eNHawps3r6AFlHAGIk4cOXLkzOiWDeKh/OeQfASDEbF55bp1OKH83eXLb17dhR4gotWhQ2egDg1v1iAeGoieRfJxnp5xKzavXAYJ9x7funDh/TtIeHUXZUAIqrMj+7ZsCA8XYFoMyQcEBgas2oAi7t+/hyLev0ddECG4Xr0a0b0hPOz/DFeS5wkEvCVbtqyCiCIUce8WtAEhkGKtd+/HDmpin8e6P7p7YlxTSD5Y7i5fu23Tki2rVuXkFEHGVRSCUnDBj/euNm/rEI9vTtj+6V6/8R5SqcfyrVvXblpiNhcXQwiR8rPu3y8qyslpDS04xs9AvCbkd95XFhoqW7Ro+/blW6urb5hRCsrBVVxsNt+44eTUom0DeFi+De/N9/FJTFywIDU1teDDByenasjBVV3t5PShoKCyZlevjn9poU1dfNwfvB9bqVSy58+fvzgxsaaysgAXwJWVNTW7di1cutTQs0uP+nkYXLw5dfJBwkixODx8qXDhwuTkXdYCGeh4g2FeQli6qH/XpvXzMFjA480B/U+eOdUZ1VRDvLUMAM8DGuykWIVONXRgD3u8F+bx4qk8nU6j0ThQYWGcMHDT00XaJH1sWppKpcrK4nJxC1R+Dubhxmdgnli7rG6exZJIRFpw9bGxCoUiTafTWXluJrRgl+dhHmzvhvKZGRm4BZL3J/gYKo9sn4byUKgFzNsOLYVHNNsxHnwyAbdA5dFDAe5LOckbIyOF9fNpEEB2ADw3yVBpvtWyUXvqVJE8XFfYmCBjJJM5NdyW/6m7QJG+aGml+er7u7dPzCaqc7083JV84GHhAMP9TvA0QtYT5YJLG19zo+jCq2dHTwOJq14eTxXJizGcAypZ2nnJBeb7F948P3SUOIT379//J98JeOrQkrw3ycOuXIWV6lnxuwrMRffKC8+dO3vz5lPi/L10CSdAwGkKTx3aevhieMF6+7bw0aOHL168JAJ+JVBboPI2Q2vL04uAX1L69fP54x+PFX76BAkvbVu49PxUzq2cs9CCLU99JpBTpQyKDCd4A+LXnvr0rfzzt6/XP34sLMQtnDtXWH5/yaLFYppEq2VK9JeJFjDfwd7Qskk+B/jtV75/PlX6Fd7grl8vvbJs1VqZnxjuJlGSS5pOlcXN4ov076xXAfP4IK+HN0bizQkvBj714sV1KzcsWSv19oM9c6ajxyfcqXoF6FxuBlcuSboA1xlfhbbAU4fW9pmAeYCWmoH35vn5wTOCzfZLTFwMlyU8fiqdli4CXsXNzDBlMCTaW2d+3kjA2xtakl+IeB8vwerV61au2LBl09bl21MTFycvNcwLkyQpdJiPk2jv4esMLTjC46EFPvkG8Gw3t5PXTq7fsXfj6pWrNi1PTUwWxv/iTXMzPSXaq7dbtYJ3UQiomw9APHVo5zsBb5wW9eXL7mvr9/zGJ4gUKlWanib28xUESERFv2ahO/DUg5w6VZj/ALx4hv/un/ymBZEJLE4Ck+0rYMB7NX4/Yoly8LRBC8A7PrQ1iGe6+R+7tnFLarJQqAwNZqjV01PQN0EEwonXI5akGE8btPA3XlAnXwC8s3qm1D1OPQs16+bqCroX/A1eOtKDWRIzGmfigdG9UWO7Q/uLr6wE/okGLhPayRiMa7COlw66nMOq/jXO3ermedRnAvAFBF8Bv0ouXWOzdNQ0h+X085n3EvN2hvYXX4N4CywE6YBP/3PpoEtprEXn4YnxFrUAvJ2DnJwq2oddiM+3XXqEzdLhr2ic1NLycvzYHmLD204VlU8m+D+WzkBLD+TJQ5XxYUkiqYzGWQCflKUo4DrwjhzkmHdaSPC2S/cMDk2OD4tVcYnS+YbSaIuvPIZPStRCn7r4gLoOcuCrlwJPz7cuPUIgUxrSFVxrpYnCDEK2n8wbxu/iRfxhX0rhQ/52kJN8iiA0aJ5IZ2VVSWFTg3xC+UGG9FgdNzaUT6cpia9u1ALwDh/ktBvhBO9hXW76PKGP1F3Ghi23bo1C6+ztQ6cFwfcqTgDe0aEF3oB4S3BCZKKUF+ixODzB6qpi0+nhSj66VmyhM10Yx9i8mQggeerQYl5J8mbMR3gLCRfvjCGIL3V3l6NbIZTvp4yEAywyMND6Vd+xUUtHD3Lg5wFPq+CBq0tKCJ/vKw+MY4R4QTHiAgXuHjJYvFE81dkoF/ACAzyhBeAdPciBTyD4OG/3gAiN2m1WdBT6X8osN7UmghHAk3vI+D5VVXm5h7OzSx4EC1ALwOOD3O7QAl9MQ7xmVrT/FGsRfIyrl2fZg+zcvAMHoQ7kQcBhCEAtIJ56kNc5tMCHIV4dhWX8fxo3jaWsJDv7cJXYmJuXd+AACjiQl2ttoTfwdg9y5k+eBTzHLQq50dNi1BqLJf9BbV4Vqtxs4+HDudCBTQv18+TQYl6C+BloO9SaQPfsbF/f2pL8/LJaI12bXWKEHiDApgUKX8/QcnJEwLOmoV/g8ULUmopgvpiVljkXVcmDqhK0SbYt9G7UxKGDnE7wWsRHB0yLYXiw6S7gEmVSaZ2VZWVVZQ8eQIBNC8A7epADrwde4u8ZzbfCmS50pW9+RX6t8Ul2Pr+sDAJwCzhB/GQAhbcdWiovimL4e5t0HKPU01Uj4DMlKhNKqrXUWuAylOEWco1PXLimDBXwDg8t5rX7IqbMnBXhoaSlgYuKq3dm+3r4+jAsKKAWLkdGRlYW2jpOO8Q7OLScIhco/R2vfSnYJXpwlwfDAye4QhNSxmdquaYsLfOASxZOfgK8vbdvGx7qWMqd6ZlapkzA8/SEQ1YD5/r0YD+6wpThQq8qsaAWFARvMgHf1MG3b+CdshB/PGUaenMKUc+MivKP1rgbJdy5XIlQyoDTQhNSUWG0WFxUGSZUzsDbG1qS/8GY3fw0DQZwHNeo0ZPx5FWvnvwHJs6pYzBRwRemMnUUp4BRAbU49tIx5sqKj9oX29qXtSutbZr21sOWdHevu3LwyMnEP8HnqW8xJtjvnQ/bSvN76L6urcFfYF/x+/3+zs5jZiGz/P79ZnLixrMr0enhy9SL5NTnrS9ffvEZyMccctjX6ELaXj+g6ukPa+8KK7fPLy7Cn3/4ePrGvXOXxr5tfXmSnXg5c+75h3eoFORjnb4RX/u0hsJX19aeJ6dYM3oL/pkni6+TDx/cvnZh/O7tu6mLM3N37pR+8nOQj3n6TmRHmhFfpQI7DD1vx+aZfu7149Grr+4Xb70aK51/8G3yzvTI6IXzpdXLH1BzxyEfc8iz1TfvUequt+t1Qr/sywEhj41y98Yy12em7z6cfDR2d+vqi9SFZ5CP2jq+b1+8If/DC7tZzwO07FUB4HOWv8AAv/Bq5kbxyuuF0fNjhckrD/HVjxG/AvlYp2/EVyoRD3ZDYUGTfcyW3Uc7zBM+UFL+peknATF1a2L+xp2Jp09x+B8u6tphyMc5fSO+XH2HYsK03eeoYVhTVZBze4RkycVpZQy/8uwq8XQmefv+/cLm86hJyO895Fv/8Fzo8Q3elMue7FI7Gs0FSt53Aek/ujozPX728c3F68XN1Yi/CflYp2/EY7UPKMp72xuK1KCXBQAQTl8Hgp3QBKsgB51R83VqzD8D+aiJv/k9Tt+In414wxuAuqia5eHQbNg8xQ/4vOcCcYekBGPy0uKkP0hv/mgB8nFv2uyb2cso2i4OZIY07arEq23H7vJBWBNcq9ZzOpQvzHO9newytOETvCnIx3iM9pN/G/Fkf8C2KcesDOWg1QeGIPPN0OWVPq0LRpuXW/0+PA8tox5BPu6QQ/4jaqFXkOUO6fRqEg9ybp8UXG9WUIWELStUL8jznj1y7twSahTycW/abLPwHDUx9JW6rrrVoWPRA4YGrpa3XV73ROBwpLrT8LyRc0sl1EXIxxxyxK+i2gPcNLdpxy9qrJ5TB6RkwVcfCDVb1oHt1N0wTC6V1lHiob/5s3sMefonX/dNbkMEVlV2hdaAo3mXwWwLKMNtzTRox26Hu5lSCUfdgnzMIUf8JmpFXndcuhXIRZbl3lh+W7J6s1bAVmzTkAZOxdjdTZXwAqoD+bhDnt4oLKNyskNtUECoyQIgfYoULB3rAU0zSZEh24KsRHwRRUE+1mM0xDfxiJ83S4FKkKqJs6xY5uUcb5lpiqPgFWHJnpPTwl2sVEijdMjHHfL0J3wJNe+4nSalgJopMbQqNroskXcCttWjKQkQQq8bhth6MYviIB9zyNGHU0JhTkkVxrctYb1Lk00t6HYUeZYCAi67Oj1Q82wYzuPpBIqBfKzHaNGrL6yjUi4QixsGU5MsCVM7pKhyZVlQWj7ZkXSCH5Ke94tXIB9zyBGPozJBSWK7OVbNiqJSZoJGhzOLOgC4qRpiIBQw28vj2REU4mMOOeKjMipPlwlNmxUkpgk/+w5PZUxW3xYaREtss6pg2/lCNolC/OlYNy3ii1EZawmARo6xCqLYqShqvWOwOEHqBWDxVVNYaff6W8VEJpNKpRC/7+DTGEOO+HRUkpfICqErb3kG/v03NspMa4NRmbJj0KRV1xy211spjsxhMOXoPtj+kzGGPP2bl5Y1rb3BdUrtNlnvMDrRkrCGAd+TwJYdCSMGw5V0Mo+CPOrAqf8OOeKzUUnQbSylu1SZljScoluYwOU1XsfcbXJbanIuNRiMZzO5XG5lBfFRJ/435IhPRCXZWcowZg0da7fZpsiIRAtUia60BCQdU9lKXfbHs6lx2LWIjzp2fq/HaH/xWrdVqTFUjdY4nCKJJuhUWGBgVqPR4vKUSsnytcTcJIqJ+KgjJ/cccsSPRCUV3DC2E12qVq/rZVppES0mXSeZJYWlqvASt025ncjfhN81TkD+T4f2HPL091rt9jeGIA7g+IWkXggSWk8tLxDxgje8E0FUW0SvrVbVw6mZ0aUlmLXckp2ZnZ1duzdnbXJ1OFLn9pZEvPb/md0NUqdVT58/4DuXzf2y2clPc49nTtUbNqXV9mBcb0YNwa2FmNTfNYj69aKOmh/i9+/Hjj69mkrz3+2dWeoaLc+fyrVwoyFYEkPXja2g6nN7HvKkXpmfj61XdWp//DimvkdTWf67TTNLv8hV/kSumUgI4xr0q+1ybLthvUZbrcR6w+2gbTVeik8f7eNnhlIza3/YAFq79NBq3mzmehsngR35cTTlNqjflNyuAx40K/WWjxaaOnz7afj4+EDqncovdvji0vmpTCn2XQiTAPhxUo5lKWz6sNX2UXVqthSgWr369vPwqclLqecd+cK20exF3jG0Kn8mM1Wr+L4biVq55PlQNDy3FGCL13DSbJfnm4R+eCtODI+mrnTmC91dPx/aQW88cybxSxrzBfYTocnQ0hJO/GoA6zb3WiRYqL36IE5cPZ86q/IdVq/veJHn+TFlcnIsMIRAUEpMqSRSCCtMIOLNStKoafWYWW9eietzp5VHWb7TnpuLpuprfjgz6XvI1KUNvcQ3uRvCWDA/tqOq63k16tfFmzdz188dSz3L8p3WHewc2kH3qqIWCwR2XY5dHhHqU1dwggJNPXszqAktELrx/Nnc7M2ZK8qTPN9pVdeia7Q8fy5nhwhgIcuhb5sytGAgIz+QgIcU+sgW1efP50oDZ5WHT7oKS1nz49AOukM5WfG8EHu8TKkNPTskED2GltQ8EZtBgPT5d3NP71xOvVT5pewcXzS0Kj+Q4yF1MHdxKN0KY9S0XYsENrbtEmwTKeKFhZtTl/ozKr+k7YcWTdUgv5RzjTAkmDAcRSVkWQLCkDArcUI7MHxBcKsezF46mVL5ZazuW5Qfv5gZ9SJoFJEHAedFhkJTSEoEx7aLYI25wq+2klPjD6aVkyq/nA3Xvw/t4NiFnOdQFlYoY+oASiwOIYKQCj2UtmnLI5VmdWBqcqh/ZGRE5Ze3dfZ73j6dCyMGiiECwPOKjJKK9CCRnu6GNBLM46Ldbg8PjR67d/v2PZVfXnfPt/zwo2OZUGeQmAwCUPYgJaGmEaAxqVuuNCSHeq1RVfXL09cmplX+Vw58zc8dyyEAcdEiGCBUhIwZanAZRxUXUWDDkMta7fyFmf4b6pr8Rk/h1zYezfPnruSQCSNmwMhxMIogs8qAAsC4STzX4G6Eg+TRlf4RVb81ovK/tq43zUdDD3PIAXqRMowJeRFBaJYswDxS8SjUOLBczw/m79240b/QbrRVfgVW9Q1qWjRwOYdMAODrCGCsEyeC1ClT7MCSQREyZAjS/bVsTy7oObC1sDKb1cO5059D2DGLEFYwYy9ABEyLYoaY6ULCQynTBTnh2z2bVXrltkBt9GQOvXYcUCw7FV1nGECIHVSxQpTuq3HOpeR9m9cVfld37/npHNJ1oxgBA8PoBQUOocSyEAqzhTivb8P2wh9Z3TWSQ0WMcRFHRgQjxhillBB1gtXbt6O78BcOTN9NIWwajgNAFEVQyU7o3a92Dv/WxgfXlFldx9hJD8hP6N2vVrj+ie5HExMTU7qC8xP27d9S+Je6Jm7d1zN43651hX9uzV2u686+XdsL/8fWnt0r/4N8AVeCuhhUl2DZAAAAAElFTkSuQmCC" vertex="1" parent="1">
                    <mxGeometry x="-180" y="-250" width="80" height="80" as="geometry"/>
                </mxCell>
                <mxCell id="44" value="Local disk directory storing the cache" style="shape=image;imageAspect=0;aspect=fixed;verticalLabelPosition=bottom;verticalAlign=top;image=data:image/png,iVBORw0KGgoAAAANSUhEUgAAAGEAAABxCAMAAADyDj0KAAADAFBMVEUAAACBhJfn6exobnvIzdOJjpZRVmlmbHhaYW9wdYBKUF5vdoNbYXLS1+B4fYfJz9hPVmXP1N9LUmLW3OXK0NlPVmbc4urIzdfKztjR1uDJz9rGy9aDipeEipWtsrqNkpx1e4dCSFTZ3eXAxtJnbXiZn6mDiZOssrx8hZCusrqprrfK0Ny+w8xDS1qmrLaRmqS6wMzn6O3p7PHa3ePX2uCyt7/s7vNOVV5KUFdJTlNLUlp3fohudX5xeIFdZW1ocHh0e4RlbXVZYGpXW2CqsbuMk51rcntgaHGDiI6DipNSWmKSmqSWnaaOlqCJkJl8g4tVXWZ9hY9ianNPU1iepa9fY2hTV1x7gYlcYGR/iJKHjJGhqLJqbnOnrriZoKqGjZettL+kq7aboq1mam+3vcixuMJtcXbL0dt+goZ3fYSRmKBwdXljZ2y0usWBhYrAxtC8w850eH3Hzde5wMqhpqynq7CNk5mssLSepKmVm6CRl52ws7d7f4OAho1FSU6+wcSkqa6prbLEytS7vsJ3e3+MkJTHycyusbWZn6XByNOHjpTEx8qRlZmytbnBxcm0t7tyfYtRa4GcoadAe6a2ur1Bf612go/O0NJBcpfS197KzdBCbItUlsZNfqK4u79NZXnd4OZIYXRARkvj5ObCxMWeoaRdeI7t7vBwrNjV1tdHi70+dp5Sd5NKcpBam8tWfJlKaoJknsmZnKBId5pOX21ChLVXc4pLbolJWGWipKdEZoBnptRUkLxme416tN7b29xhoc9MkMNMiLVzhpiBi5drgJRfdIWQxOl4ocFbZnNBW2/Y2+NblsJJgq329/eXyOyIp8Clp6qu1/Vwp9Btn8Vefpc7a49oc3+AueOcq7mHmKhVgqRebn09X3k/VGX///+kz+6IvuSru8uVr8VejbKPn69tkKx9kaNihqNxi6BrdoK3z+JtmbuGkp+avdmxwdKCoLh3l7E7ZIOqxNqit8uTqLo/Tll6i5xPW2aDsdSjx+Kis8OEm68+SFK43fiVttFaJoCoAAAAN3RSTlMACf6lGP0bwn/fnYA9NfHDZ2IxgHVNKPPprJlZVfHh2M/OPurp58W7K/bw3ci3l3Td1djTwr2zXGcQDwAADpRJREFUaN6t2mdAU1cYBuAALeDWtlardu+9yx5hBsKWGYbIFFBQSMiSkbJS2YhgQCEgQ1EqAiIiWAcgiChWkYLUWhURKlZrHW3t+M69CSbhghl9fwC19jyeHMn93lNICkTtnbkrVqx4R5P0/0VtrrbGWy+//Oabb7K8Gb5MC19GoivLle4N//Duu+++995LL7309kcfP6Xc0nM0Xpn/oqWlfTifRacnMugsPpvDyYiNTUnZRKNRUvi8pARmPS2O9jTHjp4I1JcfLZdTegaWftGSGk7NY2RyeYzExLN0FiuPz6+vB4HDxsLJ4LCYJUm8+siw5A0bNkREhERspIQnrstasvSD52Z0NOe8YpnHZ3ETSrIzudw0JpPHOMhnx7Lz8liwDV4aNzMzOz+/pCQpISEhKys9PTUrIZ/LYNXHxkX4+PgEBpokU/jZRUsWTKNoarzIYiWWJCQlleTnZ2emsTg0RwMjI1PTsDAPGgd7qRg8ZhqXK1KAqchKBya1qKiwsCKTHhsWuNbYzc2NHJe2SzBVmfNyIp2ekFWRAEI+nUMJszKEGOGCgYGHBy2DDxt5rGTnAwJKFmwmFRTEFCZVhrl5ejqZu1GyhepfPC+5PptHT0tNTweBy3Y0gVjJCh6OjrRYPgspgICSCYp4L6AAgyGpzE1u5ua2tlYWO6o/f42E552XmTw6/I70LF6KEZlMnk6Ii4uzgUMRv2BM8bkkTZ4LrhTRfWzddXQMiqqrP8WMFbw0Jq+wKDWLb2jt4jKzQKHY0ABBWxEr2FYkFfSCZa5x19E3tqiuVp8HO2Bw0xIB4JOtreUSaJs2xYbzYStI4fGkt1IhPpaEFB39tVlAPE96Gf5eZhUmhRkbyy9setoBQyb/hkluJUu0lTRzXUv16uqvSLEgpGeZGMsr2IiE2FhOuF2e1KlkS59Kia2lunr1pyRHELgexgoLkAz4JhchidJHj2+FbgHCZ6T5sdw0HltZgRPOZvOnOZSkpB3q6uovkGbR2PD+wDJQXmDb8YmQtGChcIf668+RNGJTDBJ5vMQ8Q2nBiligTCfAuUueCS9Y0CMUxqwTLCfNiU2hOZqGMxj0PI6RqgIQaCMsln+oQNATYxEaKnie9AwIlMg1hqaWiXRWXjjF1ISsmkB39f86OloQarH66+jQ0FD4nt6ECRuTN/iQTdksFt/Pjs1xcDRUXKAnsvxcfWPWR8Hy/t4xUd8g4X0Q5ouFiBCfQDfrMDbfzo4dbkdlh3M2xXmEgRA2s8CHRxT8N36u/sHrgmKiBYW+AcFBAGHCCyDMkhTWunma2zpZG60KD7e3t4TAR1E4aD1OuCjwy/i/tqdSA7xXr/a1sPAPtvCzt7R3tQBpUngWBA1Zwdx9pa5eRTab4uhl6eCwalW7jZeXl7NzASQHS4Gzl1d7u8MEPMWp8GcPcHX1o1q2e7XbB7h6AyUlLAdBm1AQ/lT9XWp2/RoTHVsns24Xk3FTCUH0hen4+MDAuJGB8yoHDPMjENBjaC6hUIgJBzPW6EF0Ifp4dJBoZmztQjaxMjQyNTBwdPaymUFQI0FohK8SJpyVEnQgCgrvk1DmEwmZIiFSVyXhBUyYRSScRUI+CCtVEp7FBC0iIYNYAEAhYREmaBMJFBCK8s9yIt1V2sM8TJhLJCQjoSSRE2mukqBGwhJHIAT+VC0sKmGoKCwl4ZlPIJjjApviqco5LBAJswgEPRAKk0BwU2UPy0SCFoEQf/r0/yAsEgnaRMKO0ztAqKesVUUQD65ziYRdSODV0wJVOYfJET+SQEgVCT4q7GEJSRwjAiEfBFTVQlQQFkwKGgQC438QnpsU1MKmCvWnd+xCwgblz+F1NdJktKcKNCSkVdKSld/DcpJE3pgibAShIq0yRWkh5gOpIsowkhV8RMJGXeWEYAuhZB2dwzhrKiN4nlbfVcFFglLn4G0RKlgkIWgcrKzXc5ESVoqFlcrswT4+PVT4rITwFo/Fjrc2lhTKVRBcXeJ1eoQ7pAQul0mGQm/m9lhQV9+Vzj2YstFdUWG1VXx5ubVQWtCAqpVnZubpZKtjKxa+AyHzYMoad8XOwc5Ir7y8PN4XBMlzWMiBixIXdGFg666vjwtFSICRzFyBPVCNdMpR9OBFEi6dJyFoOjLTmAwXNyfYgO3Dh836ICRVf6eY0J7T+PffaP14XV27HmHPUqnLE4oHXAzwTVyczB8+bGwsKyv78SS1cBc2VnrKIbR3VNWdvHTp/n0gYH1dk54eocVSSQBKhDOTx7MkWxk7AVBa2tJSXFy8dW/HcS8PtxmFnI7+vXuKf/vtxx9PYsR9+H26ZoKeHovQBVLCK1DmeDwGnzw+MFxaWlpXVwfA1t27N2851nrt2o22zs6B4WGXbmMnWySQB3IKjo+NXb9+rfXY5t1bL1y4gAgQLjU36+jrjkOH840OXSYloBJhymMwEk0Hxjs7c3PrDhyoxYTN+2tO7Tu38/DPJ85c/v77fyDfQy6fOfHz4Z2H9rUe27J7926xUFbWiAR7aImrvw6FeU8ieIkwpMO9HnW4s62qqqnpQG1tQwMIW7bsb92279DOw4d/+PnEiRNnzsCHn384vHPnkW+31ezfvHk32kPxby0tLaUYYAJrh3p/A4P9a9IXiHghtUFVcqITjH54efc0NDQAAUbN0W3fHjly6NBOLIcOwepHa/Zv2YIBW+HIDtTVAdDYPBAEg16wbxSqDjL3cBQkhG0gW9LpAQEjbZ1VVVX9e/fu3Q7BEZQaUeDLLeLlt9bW1qL1EZATFPVNdFRAzHokLCFJZz4uRISQ2aw8v5GR0bYmZEAuXgSlF8sWcTajNKDA8vj6pW2D8FD4OtrVIggXFsgIs8SCz1oXG1ReqUNDY3AcVXsAQZuRDrY4rI4vXzo8+pf/unXro9f7BQSvEwnLZAQtXMCfEebGXnZsKhhDox1NucBU7ZFM7R588dzc0tLczuNDg4O+Fv5BRVEBVPg8KTwnI2hLCp7m7vpmjlhpnpgYHR093taUK5umqo6xoZGREfz9NCgrYBXUaknhNRlhsYwAb37MbE4c1qjbIV7HUTpQ4PODBw8mJqCs4++nVC9nGyp8IS3IXumqUaYKaHBN2UB2GTBoF1V2UZ12FhV2qqWXgamplwN8ZScrLCHJJmyKcBAfKzesxAqvvs5Ds25ytyjWLhATIwMP9L5HKCyYIsyaImTgQjISJB9BTmZwn4a/8c0gLJsiaE0RIvGxMtldKWH5FEFjipCskvDUFGHuFCEQH1yTzZURXidNzSxZwROGPqWFZQTCQllBTzRWeiojzCMQ5hrJCPFC5YVPnicQFtOTZYRduOCmuBAsIBTSKDJCOoyVSgkx64SErxI8pKWFElxYq7DgHUq4B7W8g3wrKYG3Kx0JgYoKAelFS9VIBHmRWZkRKClU4oOrj4LCKlaCYAGJKLO4zEoXYwkh4ztlBAPbJIHwBUJBi5PGrHcyeyxE4reVIYoIvibliT3CqGcJBW0ak8mzMvN0EwvJigsO+uVGMFIuWUQoLE7ZxOQxYCp9KBJ8RIKuvIKrSXm5LYyUQaHzCAU1Go3NY1C7G0vLmvGyiN+Hyiv45Vy6/7d+lECAXeQSxoAWyV/tPTScW1pX1ozKIn5bGbFSHoHahibjxqBQQWgUXOQSB2Ymx4DBwUdNTTCqtJy8Hy+/8KAKjfdlpb/Cnz8KXeQSB2Ym55yRe/du7+mHiQjm0cEETHB/gnB8L1YgWkqbfv3ll+j136CLXOJo0GycC3JG7/X13dh7saEBzfYXx9rjZhIKjt/YjhWI4uK6ujt37/7y669IWDSNsJDmBSNLx1hfX1/XRRhXN6N+Au3h5vWOYSdpgTxe8GD0zs3zp1p7RfNx8d5/bwFwBRPmTSNoUmyQ0NZ/u6+r6+b23mPHekEQ95PLl3/Bcvfu3T8v4xXl3L5Tx3o3wwzesLWh69atu3d//x0TotVI08QA9pDTAQXlRldX1/nzANS0QnGAevIDZnyPB1v/BwxoPYZN+dtv/vHvrT9v/SsSXidNlzcoILSBULXnBiKgRe2vwQgwAIEGBIEOhJWgQ0e2Hd2Pakrv+T/+gPWvXr36+xVMeGFaQYsS55iDiKam2tqLN4HYt29bDRQgqD+AQNFCgc+wvLgG9baew9bv6wMAhBgoKZNjN9HM5GFgClWxCX1LFDdcw4xvYa2j2/CahXLkyBH0S6gJte47d+7cH2f+/LerDwl//X4laD0I86YVFlIiN4YZjQ+gNppbV9cyFn216yYQeMDBUgNBxQ6kc5AulNsY8NeVdUj4Wm1aQXNNJNzGGUJ1Hs7NhdZeJfjmytU71661noJsw3MUfQBvH+T8+fM3IXdu377dd+/e4F/+wZiwjDR9tJAQYUJ26e6GalaWK4i6Mvjoev+FC1t39/YeQ2mFnEJpvYZy/fr1O3eQAMCghUiYN4OgaYoEn0BrY+PGxsaTJwVR/oOPxvpbilG2itPQsP0i5MaNGwCA8OjRyMi9QdFDGmYl0kyZjQvwmHOybW6+VJTl7zp0vO3HFkgxHqhwe1B77O8HYWxsbHR0aAjalqvrpLB8RkHtDRAmH9X3E7K4ARMFnfCuCUFMHeTAgSbUhPs7OlDdGp2YQE8HV2+x8MGTfroo4rGgF59ZkZbnYDDQDAEFC9TP3NxOuDZoa+soKEB1y1JKCHrijzEtjJAQGNhY6aOvC+96iHnYiNLdPTyM/oeoKVwu2aySERaRnpjZIY+FygouEvDHqMR7K1wvWRkSCm8/GQDisZCBCyvlFgCQi5gUKAoKb6uR5CTEwsZ0hYSPSHJnoRMuhGBjZYh8gvcKkgLRfBUT1oIAI5m7PMKbiv5c3+yVIJinyitQPyYpnGde1YvXS82WS6B+jI5YGaM8PfssCOYzCy/OeYqkbDTfqnySYPPKCpJKUVuoZRjiOZ0wX2sOvDyqR1P7VSBkBPIbGotlV1dxM88sXjh79oevfvjhbO3Fzyiw9n+69kP2VwVa5wAAAABJRU5ErkJggg==" vertex="1" parent="1">
                    <mxGeometry x="680" y="201" width="80" height="80" as="geometry"/>
                </mxCell>
                <mxCell id="45" style="edgeStyle=orthogonalEdgeStyle;rounded=0;orthogonalLoop=1;jettySize=auto;html=1;exitX=1;exitY=0.5;exitDx=0;exitDy=0;entryX=0;entryY=0.5;entryDx=0;entryDy=0;" edge="1" parent="1" source="38" target="44">
                    <mxGeometry relative="1" as="geometry"/>
                </mxCell>
                <mxCell id="46" value="" style="endArrow=classic;startArrow=classic;html=1;entryX=0.5;entryY=1;entryDx=0;entryDy=0;" edge="1" parent="1">
                    <mxGeometry width="50" height="50" relative="1" as="geometry">
                        <mxPoint x="-230" y="-10" as="sourcePoint"/>
                        <mxPoint x="-230" y="-130" as="targetPoint"/>
                        <Array as="points">
                            <mxPoint x="-230" y="-50"/>
                        </Array>
                    </mxGeometry>
                </mxCell>
                <mxCell id="47" value="" style="edgeLabel;html=1;align=center;verticalAlign=middle;resizable=0;points=[];" connectable="0" vertex="1" parent="46">
                    <mxGeometry x="0.0133" relative="1" as="geometry">
                        <mxPoint as="offset"/>
                    </mxGeometry>
                </mxCell>
                <mxCell id="48" value="GRPC/HTTP" style="edgeLabel;html=1;align=center;verticalAlign=middle;resizable=0;points=[];" connectable="0" vertex="1" parent="46">
                    <mxGeometry x="0.6467" y="1" relative="1" as="geometry">
                        <mxPoint y="39" as="offset"/>
                    </mxGeometry>
                </mxCell>
            </root>
        </mxGraphModel>
    </diagram>
</mxfile>